<svg xmlns="http://www.w3.org/2000/svg" width="24" height="24" viewBox="0 0 24 24">
    <path fill="#0036A3" fill-rule="evenodd" d="M21.14 8.85L15.45 8 12.9 2.59a1 1 0 0 0-1.8 0L8.55 8l-5.69.87a1.07 1.07 0 0 0-.56 1.79l4.12 4.2-1 5.93a1 1 0 0 0 1 1.23 1.06 1.06 0 0 0 .47-.12L12 19.08l5.09 2.8c.145.076.306.117.47.12a1 1 0 0 0 1-1.23l-1-5.93 4.12-4.2a1.07 1.07 0 0 0-.54-1.79zm-5 4.59l-.71.72.16 1 .65 4L13 17.32l-1-.53-1 .53-3.25 1.81.65-4 .16-1-.71-.72L5 10.54 8.85 10l1.06-.2.45-1L12 5.36l1.64 3.48.45 1 1.06.16 3.84.58-2.85 2.86z"/>
</svg>
